Coordinates
version=1
nRows=13
nColumns=40
inDegrees=yes

Units are S.I. units (second, meters, Newtons, ...)
Angles are in degrees.

endheader
time	pelvis_tilt	pelvis_list	pelvis_rotation	pelvis_tx	pelvis_ty	pelvis_tz	hip_flexion_r	hip_adduction_r	hip_rotation_r	knee_angle_r	knee_angle_r_beta	ankle_angle_r	subtalar_angle_r	mtp_angle_r	hip_flexion_l	hip_adduction_l	hip_rotation_l	knee_angle_l	knee_angle_l_beta	ankle_angle_l	subtalar_angle_l	mtp_angle_l	lumbar_extension	lumbar_bending	lumbar_rotation	arm_flex_r	arm_add_r	arm_rot_r	elbow_flex_r	pro_sup_r	wrist_flex_r	wrist_dev_r	arm_flex_l	arm_add_l	arm_rot_l	elbow_flex_l	pro_sup_l	wrist_flex_l	wrist_dev_l
     41.11200000	     -1.36023175	     -5.11028446	      6.61334184	      1.11876730	      0.91449822	      0.53241819	     13.76996926	      4.60131163	    -10.00470110	     29.28589398	     29.28589398	     18.05361157	    -11.49479042	     -0.57187890	     29.35540081	    -13.77907106	      8.20888781	     67.22707745	     67.22707745	      6.63807179	    -17.88263049	      7.45301392	    -10.06075527	      3.74276577	      1.93884370	     27.26848590	    -16.88856260	     -4.63487371	     40.79103554	     45.92407199	      0.00000000	      0.00000000	     -0.88485599	     -8.12410328	      4.34398184	     23.75959630	     44.98654509	      0.00000000	      0.00000000
     41.13400000	     -1.32456716	     -4.94218808	      7.34175155	      1.11661493	      0.91442528	      0.53283890	     13.57028291	      4.49919222	    -10.24319607	     29.29817653	     29.29817653	     18.17471044	    -12.12338530	     -0.40604109	     31.58426415	    -13.05033878	      9.07580483	     67.58541188	     67.58541188	      6.76039505	    -18.55394923	      8.99843973	    -10.25953566	      3.68889044	      2.03140254	     31.23501882	    -17.37475787	     -4.61949522	     43.21835372	     45.85397648	      0.00000000	      0.00000000	     -3.20694941	     -7.96037144	      5.02578606	     23.27886528	     44.81261092	      0.00000000	      0.00000000
     41.15600000	     -1.34110306	     -4.73066344	      8.01602671	      1.11452566	      0.91497731	      0.53291256	     13.22794273	      4.31807091	    -10.55204352	     28.98422475	     28.98422475	     18.24248222	    -12.38052977	     -0.29506094	     33.39523596	    -12.40882015	      9.48460727	     66.73179113	     66.73179113	      6.93474449	    -18.87349044	      9.41911180	    -10.37060648	      3.56285735	      3.09220858	     34.94423456	    -18.72624656	     -4.88660988	     44.72226782	     45.83499942	      0.00000000	      0.00000000	     -4.84481502	     -7.68537407	      5.20971208	     22.89595362	     44.74519785	      0.00000000	      0.00000000
     41.17800000	     -1.48668192	     -4.52118637	      8.79255927	      1.11233527	      0.91591229	      0.53237993	     12.87524840	      4.07978089	    -11.02372946	     28.39327388	     28.39327388	     18.15954508	    -12.57664651	     -0.17315688	     35.04996501	    -11.43744223	     10.04844908	     65.09661162	     65.09661162	      8.85409430	    -18.94650768	     14.29082684	    -10.48924219	      3.48742499	      2.66380406	     38.59422586	    -19.30762592	     -3.26329306	     48.96651344	     45.61750778	      0.00000000	      0.00000000	     -8.37602240	     -8.27224782	      8.42657700	     26.08223806	     44.03175213	      0.00000000	      0.00000000
     41.20000000	     -1.68315150	     -4.30105049	      9.51787492	      1.11027212	      0.91740502	      0.53159336	     12.36329963	      3.83419119	    -11.51744115	     27.43104040	     27.43104040	     17.98368630	    -12.54836347	      0.02345303	     36.02905525	    -10.69968974	     10.12029296	     61.99741680	     61.99741680	      9.21162248	    -18.99116678	     14.23454966	    -10.44629053	      3.36981490	      2.79885330	     42.54849440	    -19.78999552	     -3.47318332	     50.96177513	     45.57731945	      0.00000000	      0.00000000	    -10.16750611	     -8.09106310	      9.25827859	     25.65086113	     43.87123390	      0.00000000	      0.00000000
     41.22200000	     -2.01426635	     -4.04318136	     10.23417536	      1.10822718	      0.91906469	      0.53038422	     11.88648566	      3.48604225	    -12.12228478	     26.31148719	     26.31148719	     17.73582143	    -12.29037296	      0.11403606	     36.58716805	     -9.85347617	     10.08982614	     57.92886888	     57.92886888	      9.40606378	    -18.93233994	     13.89163482	    -10.27002582	      3.19318228	      2.82722486	     46.30908653	    -20.19728338	     -3.57040763	     53.19369558	     45.52279505	      0.00000000	      0.00000000	    -12.04131842	     -7.98622936	     10.15243958	     25.82657316	     43.69326130	      0.00000000	      0.00000000
     41.24400000	     -2.39505463	     -3.82614621	     10.94402104	      1.10623960	      0.92076513	      0.52880867	     11.36135231	      3.12807601	    -12.90753707	     25.02365534	     25.02365534	     17.40398726	    -11.70690736	     -0.06982134	     36.66783875	     -9.05664765	      9.99002005	     53.02766881	     53.02766881	      9.08615622	    -18.62775810	     12.47769049	    -10.09052536	      3.09311775	      2.66717575	     49.89198784	    -20.37079479	     -3.42511444	     55.90222971	     45.44167001	      0.00000000	      0.00000000	    -14.06995718	     -8.04733774	     11.57177216	     26.95188376	     43.43221072	      0.00000000	      0.00000000
     41.26600000	     -2.83600619	     -3.55866070	     11.55546498	      1.10447160	      0.92231776	      0.52707368	     10.86426756	      2.74694900	    -13.49861251	     23.68726276	     23.68726276	     16.75247243	    -11.49643565	     -1.09133175	     36.15598633	     -8.33494041	      9.64676201	     47.23305458	     47.23305458	      7.36583053	    -18.35526010	      7.86566736	     -9.75988533	      2.86888651	      3.27198176	     52.88198852	    -21.35662644	     -3.36690019	     58.59653815	     45.39776959	      0.00000000	      0.00000000	    -15.99972428	     -9.96923113	     21.72406873	     30.35711470	     42.43508725	      0.00000000	      0.00000000
     41.28800000	     -3.20596018	     -3.36797889	     12.12020252	      1.10288262	      0.92379801	      0.52499697	     10.28665589	      2.44742639	    -14.09853673	     22.39378631	     22.39378631	     16.53063461	    -10.94059290	     -0.93285342	     35.41651362	     -7.59858287	      9.50198102	     41.62041772	     41.62041772	      7.33315632	    -17.24325585	      8.09830988	     -9.51987808	      2.75001085	      3.33777433	     56.27392885	    -21.50101279	     -3.46113132	     60.47735366	     45.35550079	      0.00000000	      0.00000000	    -17.20965120	     -9.71092458	     21.90506050	     30.46056049	     42.43089443	      0.00000000	      0.00000000
     41.31000000	     -3.59003682	     -3.24975473	     12.59266023	      1.10154330	      0.92483841	      0.52280772	      9.79049095	      2.21256851	    -14.65812916	     21.23668421	     21.23668421	     16.36144428	    -10.36727098	     -0.89038717	     34.49714317	     -7.10272855	      9.05042871	     36.07962106	     36.07962106	      7.32111803	    -15.31519223	      8.33584720	     -9.22206642	      2.66928605	      3.39317409	     59.39376747	    -21.49249913	     -3.47249697	     62.25519946	     45.31202940	      0.00000000	      0.00000000	    -18.28005526	     -9.50038566	     22.06141899	     30.63278840	     42.42046088	      0.00000000	      0.00000000
     41.33200000	     -3.77774686	     -3.34047551	     13.06924450	      1.10065664	      0.92559689	      0.52040367	      9.02224721	      2.21937183	    -15.49288981	     19.94829996	     19.94829996	     16.20269223	     -9.34825464	     -1.17526975	     33.38471501	     -6.92446386	      8.43287730	     30.96939125	     30.96939125	      7.27723511	    -12.77579718	      8.10984256	     -9.11381619	      2.87088590	      3.13900896	     62.30296150	    -21.10681307	     -3.24974175	     64.55519134	     45.24358231	      0.00000000	      0.00000000	    -19.44112901	     -9.27741374	     22.27339003	     31.28802017	     42.42611441	      0.00000000	      0.00000000
     41.35400000	     -3.98829466	     -3.45600464	     13.42320515	      1.10002835	      0.92584877	      0.51792120	      8.40133394	      2.26126033	    -16.08587971	     18.89873150	     18.89873150	     16.06102160	     -8.63352391	     -1.58231334	     32.33886594	     -6.82992883	      7.50019062	     26.51295070	     26.51295070	      7.30904892	     -9.98794255	      8.18496789	     -8.92151346	      3.02558525	      3.10590954	     64.85456237	    -20.84380635	     -3.05214437	     66.53252103	     45.18800844	      0.00000000	      0.00000000	    -20.30988035	     -9.14402138	     22.48781466	     31.93538678	     42.44663864	      0.00000000	      0.00000000
     41.37600000	     -4.15294326	     -3.60268172	     13.70978200	      1.09974150	      0.92574693	      0.51527002	      7.78982154	      2.34788841	    -16.55553505	     17.96300055	     17.96300055	     15.74646910	     -8.17746526	     -2.64768899	     31.37358535	     -6.78527913	      6.34934402	     22.87166012	     22.87166012	      7.40469840	     -7.20156728	      8.30497916	     -8.73913516	      3.17690996	      3.21525832	     66.90874664	    -20.77140553	     -2.84998142	     68.70344327	     45.14328009	      0.00000000	      0.00000000	    -20.99624758	     -9.20120902	     23.04482245	     32.87267802	     42.56639286	      0.00000000	      0.00000000
